<?xml version="1.0" encoding="UTF-8"?>
<svg id="Layer_1" data-name="Layer 1" xmlns="http://www.w3.org/2000/svg" viewBox="0 0 24 24" width="16" height="16">
  <defs>
    <style>
      .cls-1 {
        stroke: #fff;
        stroke-miterlimit: 10;
      }

      .cls-2 {
        fill: #fff;
        stroke-width: 0px;
      }
    </style>
  </defs>
  <rect class="cls-1" x=".5" y=".5" width="181.22" height="189.95"/>
  <g>
  <path fill="#000000" d="M11.77 2.39c-.06-.25-.37-.39-.63-.27-1.32.55-2.45 1.22-3.41 2.02C6.14 5.47 5.5 6.83 5.5 8.25c0 1.38.67 2.71 1.89 3.59l2.14 1.52-3.65 2.66a4.688 4.688 0 0 0-.02 7.92c1.22.88 2.64 1.34 4.09 1.34 1.45 0 2.88-.46 4.1-1.34l7.06-5.14c2.27-1.65 3.73-4.3 3.73-7.21 0-1.99-.78-3.85-2.2-5.26-.24-.24-.65-.07-.65.29 0 .12.07.24.16.32.24.23.38.53.38.85 0 .69-.56 1.25-1.25 1.25-.69 0-1.25-.56-1.25-1.25 0-.27.08-.53.24-.75.03-.03.06-.05.1-.07 1.37-.6 2.52-1.32 3.47-2.17.14-.13.2-.32.17-.51-.04-.18-.19-.32-.37-.36-1.05-.25-2.15-.38-3.27-.38-2.36 0-4.62.68-6.54 1.93-.41.28-.53.86-.25 1.28.28.41.86.53 1.28.25 1.69-1.17 3.7-1.78 5.76-1.78 1.11 0 2.21.13 3.26.38.18.04.34-.11.37-.29.04-.19-.03-.38-.17-.51-1.57-1.41-3.42-2.19-5.29-2.19-1.57 0-3.07.41-4.37 1.19-.08.04-.15.08-.21.15zM15.5 16.5c-.14 0-.28-.05-.39-.15L9.53 11.5c-.22-.22-.34-.52-.34-.84 0-.65.53-1.18 1.18-1.18.32 0 .62.12.84.34l3.73 3.73 1.57-1.14c.23-.17.54-.13.71.1.17.23.13.54-.1.71l-2.14 1.56c-.11.08-.24.12-.37.12zm-2.75-6.63c.13 0 .26.05.36.15l5.14 5.14c.22.22.34.52.34.84 0 .65-.53 1.18-1.18 1.18-.32 0-.62-.12-.84-.34l-3.73-3.73-1.57 1.14c-.23.17-.54.13-.71-.1-.17-.23-.13-.54.1-.71l2.14-1.56c.1-.09.23-.15.37-.15z"/>
  <!-- Martı kafası -->
  <path fill="#000000" d="M11.5 2.5c-.2 0-.39.08-.53.24L6.5 6.5c-.32.32-.32.84 0 1.16.16.16.36.24.56.24s.39-.08.53-.24l4.5-4.5c.32-.32.32-.84 0-1.16-.14-.16-.34-.24-.56-.24zM9.25 7.25c-.83 0-1.5.67-1.5 1.5 0 .83.67 1.5 1.5 1.5s1.5-.67 1.5-1.5c0-.83-.67-1.5-1.5-1.5zM13.75 7.25c-.83 0-1.5.67-1.5 1.5 0 .83.67 1.5 1.5 1.5s1.5-.67 1.5-1.5c0-.83-.67-1.5-1.5-1.5z"/>
  </g>
</svg>